<svg width="180" height="180" viewBox="0 0 180 180" fill="none" xmlns="http://www.w3.org/2000/svg">
<path d="M0 21.0938C0 9.44399 9.44399 0 21.0938 0H158.906C170.556 0 180 9.44399 180 21.0938V158.906C180 170.556 170.556 180 158.906 180H21.0938C9.44399 180 0 170.556 0 158.906V21.0938Z" fill="white"/>
<path fill-rule="evenodd" clip-rule="evenodd" d="M109.903 20.5039H70.0986V54.4861L40.9368 36.4914L19.7857 69.9095L52.346 90.0021L19.7855 110.092L40.9369 143.511L70.0965 125.516V159.496L109.903 159.495V125.517L139.062 143.512L160.214 110.093L127.653 90.0032L160.216 69.9096L139.065 36.4914L109.903 54.4861V20.5039ZM98.6529 31.7539V74.6475L135.507 51.9061L144.624 66.3112L106.23 90.0038L144.622 113.692L135.505 128.097L98.6529 105.355V148.245L81.3465 148.246V105.354L44.4944 128.096L35.3773 113.691L73.7696 90.0028L35.3771 66.3113L44.4945 51.9061L81.3486 74.6475V31.7539H98.6529Z" fill="#393E41"/>
</svg>
