<svg width="539" height="68" viewBox="0 0 539 68" fill="none" xmlns="http://www.w3.org/2000/svg">
<path d="M504.895 53.0909V0.238525H514.041V22.5803L512.785 21.2538C513.669 18.9731 515.112 17.2509 517.113 16.0873C519.161 14.8771 521.535 14.272 524.235 14.272C527.028 14.272 529.495 14.8771 531.636 16.0873C533.823 17.2974 535.522 18.9963 536.732 21.184C537.943 23.3251 538.548 25.8153 538.548 28.6545V53.0909H529.401V30.8189C529.401 29.1433 529.076 27.7003 528.424 26.4902C527.772 25.28 526.865 24.3491 525.701 23.6974C524.584 22.9993 523.257 22.6502 521.721 22.6502C520.232 22.6502 518.905 22.9993 517.742 23.6974C516.578 24.3491 515.67 25.28 515.019 26.4902C514.367 27.7003 514.041 29.1433 514.041 30.8189V53.0909H504.895Z" fill="white"/>
<path d="M493.369 53.5098C489.087 53.5098 485.759 52.3462 483.385 50.0189C481.058 47.6451 479.894 44.3171 479.894 40.0349V23.2785H473.331V15.1098H474.03C475.891 15.1098 477.334 14.6211 478.358 13.6436C479.382 12.6662 479.894 11.2465 479.894 9.38471V6.45234H489.041V15.1098H497.768V23.2785H489.041V39.5462C489.041 40.8029 489.25 41.8734 489.669 42.7578C490.134 43.6422 490.833 44.3171 491.763 44.7825C492.741 45.248 493.974 45.4807 495.464 45.4807C495.79 45.4807 496.162 45.4574 496.581 45.4109C497.046 45.3643 497.488 45.3178 497.907 45.2713V53.0909C497.256 53.184 496.511 53.2771 495.673 53.3702C494.835 53.4632 494.067 53.5098 493.369 53.5098Z" fill="white"/>
<path d="M458.463 53.0909V0.238525H467.61V53.0909H458.463Z" fill="white"/>
<path d="M429.483 53.9287C426.83 53.9287 424.526 53.4865 422.571 52.6022C420.616 51.7178 419.104 50.4611 418.033 48.832C416.963 47.1563 416.427 45.2247 416.427 43.0371C416.427 40.9425 416.893 39.0807 417.824 37.4516C418.755 35.776 420.198 34.3796 422.152 33.2625C424.107 32.1454 426.574 31.3542 429.553 30.8887L441.981 28.864V35.8458L431.299 37.6611C429.483 37.9869 428.134 38.5687 427.249 39.4065C426.365 40.2443 425.923 41.3382 425.923 42.688C425.923 43.9913 426.411 45.0385 427.389 45.8298C428.413 46.5745 429.67 46.9469 431.159 46.9469C433.067 46.9469 434.743 46.5513 436.186 45.76C437.675 44.9222 438.816 43.7818 439.607 42.3389C440.445 40.896 440.864 39.3134 440.864 37.5913V27.8167C440.864 26.1876 440.212 24.8378 438.909 23.7673C437.652 22.6502 435.977 22.0916 433.882 22.0916C431.927 22.0916 430.182 22.6269 428.646 23.6974C427.156 24.7214 426.062 26.0945 425.364 27.8167L417.894 24.1862C418.638 22.1847 419.802 20.4625 421.385 19.0196C423.014 17.5302 424.922 16.3665 427.11 15.5287C429.297 14.6909 431.671 14.272 434.231 14.272C437.35 14.272 440.096 14.8538 442.47 16.0174C444.843 17.1345 446.682 18.7171 447.985 20.7651C449.335 22.7665 450.01 25.1171 450.01 27.8167V53.0909H441.353V46.5978L443.307 46.4582C442.33 48.0872 441.166 49.4603 439.816 50.5774C438.467 51.648 436.931 52.4858 435.208 53.0909C433.486 53.6494 431.578 53.9287 429.483 53.9287Z" fill="white"/>
<path d="M393.363 53.9287C389.453 53.9287 386.032 53.0443 383.1 51.2756C380.167 49.5069 377.887 47.1098 376.257 44.0843C374.628 41.0589 373.814 37.7076 373.814 34.0305C373.814 30.2138 374.628 26.8393 376.257 23.9069C377.933 20.928 380.19 18.5774 383.03 16.8552C385.916 15.1331 389.127 14.272 392.665 14.272C395.644 14.272 398.25 14.7607 400.484 15.7382C402.765 16.7156 404.697 18.0654 406.279 19.7876C407.862 21.5098 409.072 23.488 409.91 25.7222C410.748 27.9098 411.167 30.2836 411.167 32.8436C411.167 33.4953 411.12 34.1702 411.027 34.8683C410.98 35.5665 410.864 36.1716 410.678 36.6836H381.354V29.7018H405.511L401.183 32.9833C401.601 30.8422 401.485 28.9338 400.833 27.2582C400.228 25.5825 399.204 24.256 397.761 23.2785C396.365 22.3011 394.666 21.8123 392.665 21.8123C390.756 21.8123 389.057 22.3011 387.568 23.2785C386.078 24.2094 384.938 25.6058 384.147 27.4676C383.402 29.2829 383.123 31.4938 383.309 34.1003C383.123 36.4276 383.425 38.4989 384.217 40.3142C385.055 42.0829 386.265 43.456 387.847 44.4334C389.476 45.4109 391.338 45.8996 393.433 45.8996C395.527 45.8996 397.296 45.4574 398.739 44.5731C400.228 43.6887 401.392 42.5018 402.23 41.0123L409.63 44.6429C408.886 46.4582 407.722 48.064 406.14 49.4603C404.557 50.8567 402.672 51.9505 400.484 52.7418C398.343 53.5331 395.969 53.9287 393.363 53.9287Z" fill="white"/>
<path d="M324.913 53.0909V1.07634H334.408V23.7673H356.541V1.07634H366.106V53.0909H356.541V32.1454H334.408V53.0909H324.913Z" fill="white"/>
<path d="M282.756 53.9287C280.103 53.9287 277.799 53.4865 275.844 52.6022C273.889 51.7178 272.376 50.4611 271.306 48.832C270.235 47.1563 269.7 45.2247 269.7 43.0371C269.7 40.9425 270.166 39.0807 271.096 37.4516C272.027 35.776 273.47 34.3796 275.425 33.2625C277.38 32.1454 279.847 31.3542 282.826 30.8887L295.254 28.864V35.8458L284.571 37.6611C282.756 37.9869 281.406 38.5687 280.522 39.4065C279.638 40.2443 279.195 41.3382 279.195 42.688C279.195 43.9913 279.684 45.0385 280.662 45.8298C281.686 46.5745 282.942 46.9469 284.432 46.9469C286.34 46.9469 288.016 46.5513 289.459 45.76C290.948 44.9222 292.088 43.7818 292.88 42.3389C293.718 40.896 294.137 39.3134 294.137 37.5913V27.8167C294.137 26.1876 293.485 24.8378 292.182 23.7673C290.925 22.6502 289.249 22.0916 287.155 22.0916C285.2 22.0916 283.454 22.6269 281.918 23.6974C280.429 24.7214 279.335 26.0945 278.637 27.8167L271.166 24.1862C271.911 22.1847 273.075 20.4625 274.657 19.0196C276.286 17.5302 278.195 16.3665 280.382 15.5287C282.57 14.6909 284.944 14.272 287.504 14.272C290.622 14.272 293.368 14.8538 295.742 16.0174C298.116 17.1345 299.955 18.7171 301.258 20.7651C302.608 22.7665 303.283 25.1171 303.283 27.8167V53.0909H294.625V46.5978L296.58 46.4582C295.603 48.0872 294.439 49.4603 293.089 50.5774C291.739 51.648 290.203 52.4858 288.481 53.0909C286.759 53.6494 284.851 53.9287 282.756 53.9287Z" fill="white"/>
<path d="M245.122 53.0909V15.1098H253.71V23.5578L253.012 22.3011C253.896 19.4618 255.269 17.4836 257.131 16.3665C259.04 15.2494 261.32 14.6909 263.973 14.6909H266.208V22.7898H262.926C260.32 22.7898 258.225 23.6043 256.643 25.2334C255.06 26.816 254.269 29.0502 254.269 31.936V53.0909H245.122Z" fill="white"/>
<path d="M227.532 53.0909V15.1098H236.678V53.0909H227.532ZM227.532 10.8509V1.07634H236.678V10.8509H227.532Z" fill="white"/>
<path d="M199.69 53.9287C196.758 53.9287 194.198 53.2771 192.01 51.9738C189.869 50.6705 188.216 48.8553 187.053 46.528C185.936 44.2007 185.377 41.4778 185.377 38.3592V15.1098H194.523V37.5913C194.523 39.1738 194.826 40.5702 195.431 41.7803C196.083 42.944 196.99 43.8749 198.154 44.5731C199.364 45.2247 200.714 45.5505 202.203 45.5505C203.693 45.5505 205.019 45.2247 206.183 44.5731C207.347 43.8749 208.254 42.9207 208.906 41.7105C209.558 40.5003 209.883 39.0574 209.883 37.3818V15.1098H219.03V53.0909H210.372V45.6203L211.14 46.9469C210.256 49.2742 208.79 51.0196 206.742 52.1833C204.74 53.3469 202.39 53.9287 199.69 53.9287Z" fill="white"/>
<path d="M168.49 67.0545V45.76L169.956 47.5753C168.653 49.6233 166.838 51.2058 164.51 52.3229C162.183 53.3934 159.646 53.9287 156.9 53.9287C153.223 53.9287 149.942 53.0676 147.056 51.3454C144.17 49.5767 141.889 47.1796 140.214 44.1542C138.538 41.1287 137.7 37.7774 137.7 34.1003C137.7 30.3767 138.538 27.0254 140.214 24.0465C141.889 21.0676 144.17 18.6938 147.056 16.9251C149.988 15.1563 153.246 14.272 156.83 14.272C159.716 14.272 162.276 14.8538 164.51 16.0174C166.791 17.1345 168.583 18.7171 169.886 20.7651L168.979 22.6502V15.1098H177.636V67.0545H168.49ZM157.878 45.5505C159.972 45.5505 161.811 45.0618 163.393 44.0843C164.976 43.1069 166.209 41.7571 167.094 40.0349C168.025 38.3127 168.49 36.3345 168.49 34.1003C168.49 31.9127 168.025 29.9578 167.094 28.2356C166.209 26.4669 164.976 25.0938 163.393 24.1163C161.811 23.1389 159.972 22.6502 157.878 22.6502C155.83 22.6502 153.991 23.1622 152.362 24.1862C150.733 25.1636 149.453 26.5134 148.522 28.2356C147.638 29.9113 147.195 31.8662 147.195 34.1003C147.195 36.3345 147.638 38.3127 148.522 40.0349C149.453 41.7571 150.733 43.1069 152.362 44.0843C153.991 45.0618 155.83 45.5505 157.878 45.5505Z" fill="white"/>
<path d="M97.8498 53.0909V15.1098H106.437V22.5803L105.739 21.2538C106.624 18.9731 108.066 17.2509 110.068 16.0873C112.116 14.8771 114.49 14.272 117.189 14.272C119.982 14.272 122.449 14.8771 124.59 16.0873C126.778 17.2974 128.477 18.9963 129.687 21.184C130.897 23.3251 131.502 25.8153 131.502 28.6545V53.0909H122.356V30.8189C122.356 29.1433 122.03 27.7003 121.378 26.4902C120.727 25.28 119.819 24.3491 118.656 23.6974C117.538 22.9993 116.212 22.6502 114.676 22.6502C113.186 22.6502 111.86 22.9993 110.696 23.6974C109.533 24.3491 108.625 25.28 107.973 26.4902C107.322 27.7003 106.996 29.1433 106.996 30.8189V53.0909H97.8498Z" fill="white"/>
<path d="M79.1178 53.0909V1.07634H88.613V53.0909H79.1178Z" fill="white"/>
<path fill-rule="evenodd" clip-rule="evenodd" d="M32.0475 7.27271H17.9524V18.6699L8.19432 12.6345L0.706618 24.4924L11.6698 31.2735L0.706543 38.0536L8.19435 49.9117L17.9517 43.8763V55.2728L32.0475 55.2723V43.8766L41.8048 49.912L49.2926 38.0539L38.3294 31.2738L49.2933 24.4924L41.8056 12.6345L32.0475 18.6699V7.27271ZM27.6838 11.6363V26.4997L40.4242 18.6198L43.2521 23.0982L30.0336 31.2741L43.2513 39.4484L40.4235 43.9267L27.6838 36.0466V50.9088L22.3153 50.909V36.0463L9.57569 43.9263L6.74788 39.4481L19.9656 31.2737L6.74781 23.0982L9.57572 18.6198L22.3161 26.4997V11.6363H27.6838Z" fill="white"/>
</svg>
