<svg width="556" height="122" viewBox="0 0 556 122" fill="none" xmlns="http://www.w3.org/2000/svg">
<path d="M517.553 97.536C512.689 97.536 508.465 96.7253 504.881 95.104C501.297 93.4826 498.524 91.1786 496.561 88.192C494.599 85.12 493.617 81.5786 493.617 77.568C493.617 73.728 494.471 70.3146 496.177 67.328C497.884 64.256 500.529 61.696 504.113 59.648C507.697 57.6 512.22 56.1493 517.681 55.296L540.465 51.584V64.384L520.881 67.712C517.553 68.3093 515.079 69.376 513.457 70.912C511.836 72.448 511.025 74.4533 511.025 76.928C511.025 79.3173 511.921 81.2373 513.713 82.688C515.591 84.0533 517.895 84.736 520.625 84.736C524.124 84.736 527.196 84.0106 529.841 82.56C532.572 81.024 534.663 78.9333 536.113 76.288C537.649 73.6426 538.417 70.7413 538.417 67.584V49.664C538.417 46.6773 537.223 44.2026 534.833 42.24C532.529 40.192 529.457 39.168 525.617 39.168C522.033 39.168 518.833 40.1493 516.017 42.112C513.287 43.9893 511.281 46.5066 510.001 49.664L496.305 43.008C497.671 39.3386 499.804 36.1813 502.705 33.536C505.692 30.8053 509.191 28.672 513.201 27.136C517.212 25.6 521.564 24.832 526.257 24.832C531.975 24.832 537.009 25.8986 541.361 28.032C545.713 30.08 549.084 32.9813 551.473 36.736C553.948 40.4053 555.185 44.7146 555.185 49.664V96H539.313V84.096L542.897 83.84C541.105 86.8266 538.972 89.344 536.497 91.392C534.023 93.3546 531.207 94.8906 528.049 96C524.892 97.024 521.393 97.536 517.553 97.536Z" fill="white"/>
<path d="M448.558 96V26.368H464.302V41.856L463.022 39.552C464.644 34.3466 467.161 30.72 470.574 28.672C474.073 26.624 478.254 25.6 483.118 25.6H487.214V40.448H481.198C476.42 40.448 472.58 41.9413 469.678 44.928C466.777 47.8293 465.326 51.9253 465.326 57.216V96H448.558Z" fill="white"/>
<path d="M416.308 96V26.368H433.076V96H416.308ZM416.308 18.56V0.639954H433.076V18.56H416.308Z" fill="white"/>
<path d="M365.265 97.536C359.889 97.536 355.196 96.3413 351.185 93.952C347.26 91.5626 344.231 88.2346 342.097 83.968C340.049 79.7013 339.025 74.7093 339.025 68.992V26.368H355.793V67.584C355.793 70.4853 356.348 73.0453 357.457 75.264C358.652 77.3973 360.316 79.104 362.449 80.384C364.668 81.5786 367.143 82.176 369.873 82.176C372.604 82.176 375.036 81.5786 377.169 80.384C379.303 79.104 380.967 77.3546 382.161 75.136C383.356 72.9173 383.953 70.272 383.953 67.2V26.368H400.721V96H384.849V82.304L386.257 84.736C384.636 89.0026 381.948 92.2026 378.193 94.336C374.524 96.4693 370.215 97.536 365.265 97.536Z" fill="white"/>
<path d="M308.065 121.6V82.56L310.753 85.888C308.364 89.6426 305.036 92.544 300.769 94.592C296.503 96.5546 291.852 97.536 286.817 97.536C280.076 97.536 274.06 95.9573 268.769 92.8C263.479 89.5573 259.297 85.1626 256.225 79.616C253.153 74.0693 251.617 67.9253 251.617 61.184C251.617 54.3573 253.153 48.2133 256.225 42.752C259.297 37.2906 263.479 32.9386 268.769 29.696C274.145 26.4533 280.119 24.832 286.689 24.832C291.98 24.832 296.673 25.8986 300.769 28.032C304.951 30.08 308.236 32.9813 310.625 36.736L308.961 40.192V26.368H324.833V121.6H308.065ZM288.609 82.176C292.449 82.176 295.82 81.28 298.721 79.488C301.623 77.696 303.884 75.2213 305.505 72.064C307.212 68.9066 308.065 65.28 308.065 61.184C308.065 57.1733 307.212 53.5893 305.505 50.432C303.884 47.1893 301.623 44.672 298.721 42.88C295.82 41.088 292.449 40.192 288.609 40.192C284.855 40.192 281.484 41.1306 278.497 43.008C275.511 44.8 273.164 47.2746 271.457 50.432C269.836 53.504 269.025 57.088 269.025 61.184C269.025 65.28 269.836 68.9066 271.457 72.064C273.164 75.2213 275.511 77.696 278.497 79.488C281.484 81.28 284.855 82.176 288.609 82.176Z" fill="white"/>
<path d="M178.558 96V26.368H194.302V40.064L193.022 37.632C194.644 33.4506 197.289 30.2933 200.958 28.16C204.713 25.9413 209.065 24.832 214.014 24.832C219.134 24.832 223.657 25.9413 227.582 28.16C231.593 30.3786 234.708 33.4933 236.926 37.504C239.145 41.4293 240.254 45.9946 240.254 51.2V96H223.486V55.168C223.486 52.096 222.889 49.4506 221.694 47.232C220.5 45.0133 218.836 43.3066 216.702 42.112C214.654 40.832 212.222 40.192 209.406 40.192C206.676 40.192 204.244 40.832 202.11 42.112C199.977 43.3066 198.313 45.0133 197.118 47.232C195.924 49.4506 195.326 52.096 195.326 55.168V96H178.558Z" fill="white"/>
<path d="M144.216 96V0.639954H161.624V96H144.216Z" fill="white"/>
<path fill-rule="evenodd" clip-rule="evenodd" d="M57.9207 12H32.0799V32.8949L14.19 21.83L0.46254 43.5695L20.5617 56.0014L0.462402 68.4315L14.1901 90.1714L32.0785 79.1066V100L57.9207 99.9991V79.1072L75.8092 90.172L89.5369 68.4322L69.4376 56.002L89.5381 43.5695L75.8106 21.83L57.9207 32.8949V12ZM49.9207 20V47.2495L73.278 32.8029L78.4625 41.0133L54.2286 56.0024L78.4611 70.9887L73.2768 79.1989L49.9207 64.7521V91.9994L40.0785 91.9998V64.7515L16.7225 79.1982L11.5382 70.9881L35.7706 56.0018L11.5381 41.0133L16.7226 32.8029L40.0799 47.2495V20H49.9207Z" fill="white"/>
</svg>
