<svg width="536" height="67" viewBox="0 0 536 67" fill="none" xmlns="http://www.w3.org/2000/svg">
<path d="M502.453 52.7059V0.0926514H511.557V22.3334L510.306 21.0128C511.187 18.7424 512.623 17.028 514.616 15.8697C516.654 14.665 519.017 14.0626 521.705 14.0626C524.485 14.0626 526.941 14.665 529.072 15.8697C531.25 17.0744 532.941 18.7656 534.146 20.9433C535.35 23.0747 535.953 25.5536 535.953 28.3801V52.7059H526.848V30.5346C526.848 28.8666 526.524 27.4302 525.875 26.2255C525.226 25.0208 524.323 24.0941 523.164 23.4454C522.052 22.7504 520.732 22.4029 519.203 22.4029C517.72 22.4029 516.399 22.7504 515.241 23.4454C514.083 24.0941 513.179 25.0208 512.531 26.2255C511.882 27.4302 511.557 28.8666 511.557 30.5346V52.7059H502.453Z" fill="#393E41"/>
<path d="M490.979 53.1229C486.716 53.1229 483.403 51.9645 481.04 49.6478C478.723 47.2847 477.565 43.9717 477.565 39.7089V23.0284H471.032V14.8966H471.727C473.58 14.8966 475.017 14.4101 476.036 13.4371C477.055 12.4641 477.565 11.0508 477.565 9.19745V6.27835H486.67V14.8966H495.358V23.0284H486.67V39.2224C486.67 40.4735 486.878 41.5392 487.295 42.4195C487.759 43.2999 488.454 43.9717 489.38 44.4351C490.353 44.8984 491.581 45.1301 493.064 45.1301C493.388 45.1301 493.759 45.1069 494.176 45.0606C494.639 45.0143 495.079 44.9679 495.497 44.9216V52.7059C494.848 52.7985 494.106 52.8912 493.272 52.9839C492.438 53.0765 491.674 53.1229 490.979 53.1229Z" fill="#393E41"/>
<path d="M456.231 52.7059V0.0926514H465.336V52.7059H456.231Z" fill="#393E41"/>
<path d="M427.382 53.5399C424.741 53.5399 422.447 53.0997 420.501 52.2193C418.555 51.339 417.049 50.0879 415.984 48.4662C414.918 46.7982 414.385 44.8753 414.385 42.6975C414.385 40.6125 414.849 38.7591 415.775 37.1374C416.702 35.4693 418.138 34.0793 420.084 32.9672C422.03 31.8552 424.486 31.0675 427.452 30.6041L439.823 28.5886V35.5388L429.189 37.3459C427.382 37.6702 426.038 38.2494 425.158 39.0834C424.278 39.9174 423.838 41.0063 423.838 42.35C423.838 43.6474 424.324 44.6899 425.297 45.4776C426.316 46.219 427.567 46.5897 429.05 46.5897C430.95 46.5897 432.618 46.1958 434.054 45.4081C435.537 44.5741 436.672 43.4389 437.46 42.0025C438.294 40.5661 438.711 38.9907 438.711 37.2764V27.546C438.711 25.9243 438.062 24.5806 436.765 23.5149C435.514 22.4029 433.846 21.8469 431.761 21.8469C429.815 21.8469 428.077 22.3797 426.548 23.4454C425.065 24.4648 423.977 25.8317 423.281 27.546L415.845 23.9319C416.586 21.9395 417.744 20.2251 419.32 18.7888C420.942 17.306 422.841 16.1477 425.019 15.3136C427.197 14.4796 429.56 14.0626 432.108 14.0626C435.213 14.0626 437.946 14.6418 440.31 15.8002C442.673 16.9122 444.503 18.4876 445.8 20.5263C447.144 22.5187 447.816 24.8586 447.816 27.546V52.7059H439.198V46.2422L441.144 46.1031C440.171 47.7249 439.012 49.0917 437.668 50.2038C436.325 51.2695 434.796 52.1035 433.081 52.7059C431.367 53.2619 429.467 53.5399 427.382 53.5399Z" fill="#393E41"/>
<path d="M391.425 53.5399C387.533 53.5399 384.127 52.6595 381.208 50.8988C378.289 49.1381 376.019 46.7518 374.397 43.7401C372.775 40.7283 371.964 37.3922 371.964 33.7317C371.964 29.9323 372.775 26.573 374.397 23.6539C376.065 20.6885 378.312 18.3486 381.139 16.6342C384.011 14.9198 387.209 14.0626 390.73 14.0626C393.695 14.0626 396.29 14.5491 398.514 15.5222C400.785 16.4952 402.708 17.8389 404.283 19.5533C405.858 21.2677 407.063 23.2369 407.897 25.461C408.731 27.6387 409.148 30.0018 409.148 32.5502C409.148 33.1989 409.102 33.8707 409.009 34.5658C408.963 35.2608 408.847 35.8631 408.662 36.3728H379.471V29.4226H403.518L399.209 32.6892C399.626 30.5578 399.51 28.6581 398.862 26.99C398.259 25.322 397.24 24.0014 395.804 23.0284C394.414 22.0554 392.722 21.5688 390.73 21.5688C388.83 21.5688 387.139 22.0554 385.656 23.0284C384.174 23.9551 383.038 25.3451 382.251 27.1985C381.509 29.0056 381.231 31.2065 381.417 33.8012C381.231 36.118 381.533 38.1799 382.32 39.9869C383.154 41.7477 384.359 43.1146 385.934 44.0876C387.556 45.0606 389.409 45.5471 391.495 45.5471C393.58 45.5471 395.34 45.107 396.777 44.2266C398.259 43.3462 399.418 42.1647 400.252 40.682L407.619 44.2961C406.878 46.1031 405.719 47.7017 404.144 49.0917C402.569 50.4818 400.692 51.5707 398.514 52.3584C396.383 53.146 394.02 53.5399 391.425 53.5399Z" fill="#393E41"/>
<path d="M323.285 52.7059V0.926676H332.737V23.5149H354.77V0.926676H364.291V52.7059H354.77V31.8552H332.737V52.7059H323.285Z" fill="#393E41"/>
<path d="M281.319 53.5399C278.678 53.5399 276.384 53.0997 274.438 52.2193C272.492 51.339 270.986 50.0879 269.92 48.4662C268.855 46.7982 268.322 44.8753 268.322 42.6975C268.322 40.6125 268.785 38.7591 269.712 37.1374C270.639 35.4693 272.075 34.0793 274.021 32.9672C275.967 31.8552 278.423 31.0675 281.388 30.6041L293.76 28.5886V35.5388L283.126 37.3459C281.319 37.6702 279.975 38.2494 279.095 39.0834C278.214 39.9174 277.774 41.0063 277.774 42.35C277.774 43.6474 278.261 44.6899 279.234 45.4776C280.253 46.219 281.504 46.5897 282.987 46.5897C284.887 46.5897 286.555 46.1958 287.991 45.4081C289.474 44.5741 290.609 43.4389 291.397 42.0025C292.231 40.5661 292.648 38.9907 292.648 37.2764V27.546C292.648 25.9243 291.999 24.5806 290.702 23.5149C289.451 22.4029 287.782 21.8469 285.697 21.8469C283.751 21.8469 282.014 22.3797 280.485 23.4454C279.002 24.4648 277.913 25.8317 277.218 27.546L269.781 23.9319C270.523 21.9395 271.681 20.2251 273.257 18.7888C274.878 17.306 276.778 16.1477 278.956 15.3136C281.133 14.4796 283.497 14.0626 286.045 14.0626C289.149 14.0626 291.883 14.6418 294.246 15.8002C296.609 16.9122 298.439 18.4876 299.737 20.5263C301.081 22.5187 301.752 24.8586 301.752 27.546V52.7059H293.134V46.2422L295.08 46.1031C294.107 47.7249 292.949 49.0917 291.605 50.2038C290.261 51.2695 288.732 52.1035 287.018 52.7059C285.304 53.2619 283.404 53.5399 281.319 53.5399Z" fill="#393E41"/>
<path d="M243.855 52.7059V14.8966H252.404V23.3064L251.709 22.0554C252.59 19.2289 253.956 17.2597 255.81 16.1477C257.71 15.0356 259.98 14.4796 262.621 14.4796H264.845V22.5419H261.578C258.984 22.5419 256.899 23.3527 255.323 24.9745C253.748 26.5498 252.96 28.7739 252.96 31.6467V52.7059H243.855Z" fill="#393E41"/>
<path d="M226.344 52.7059V14.8966H235.449V52.7059H226.344ZM226.344 10.657V0.926676H235.449V10.657H226.344Z" fill="#393E41"/>
<path d="M198.628 53.5399C195.709 53.5399 193.161 52.8912 190.983 51.5938C188.852 50.2964 187.207 48.4894 186.049 46.1727C184.936 43.8559 184.38 41.1453 184.38 38.0409V14.8966H193.485V37.2764C193.485 38.8517 193.786 40.2418 194.389 41.4465C195.037 42.6049 195.941 43.5316 197.099 44.2266C198.304 44.8753 199.648 45.1996 201.131 45.1996C202.613 45.1996 203.934 44.8753 205.092 44.2266C206.251 43.5316 207.154 42.5817 207.803 41.377C208.451 40.1723 208.776 38.7359 208.776 37.0679V14.8966H217.881V52.7059H209.262V45.2691L210.027 46.5897C209.146 48.9064 207.687 50.644 205.648 51.8023C203.656 52.9607 201.316 53.5399 198.628 53.5399Z" fill="#393E41"/>
<path d="M167.57 66.6063V45.4081L169.029 47.2152C167.732 49.2539 165.925 50.8293 163.608 51.9413C161.291 53.007 158.766 53.5399 156.032 53.5399C152.372 53.5399 149.105 52.6827 146.232 50.9683C143.36 49.2076 141.089 46.8213 139.421 43.8096C137.753 40.7978 136.919 37.4617 136.919 33.8012C136.919 30.0945 137.753 26.7584 139.421 23.7929C141.089 20.8275 143.36 18.4644 146.232 16.7037C149.152 14.943 152.395 14.0626 155.963 14.0626C158.835 14.0626 161.384 14.6418 163.608 15.8002C165.878 16.9122 167.662 18.4876 168.96 20.5263L168.056 22.4029V14.8966H176.674V66.6063H167.57ZM157.005 45.1996C159.09 45.1996 160.921 44.7131 162.496 43.7401C164.071 42.767 165.299 41.4233 166.18 39.7089C167.106 37.9945 167.57 36.0253 167.57 33.8012C167.57 31.6235 167.106 29.6774 166.18 27.9631C165.299 26.2023 164.071 24.8355 162.496 23.8624C160.921 22.8894 159.09 22.4029 157.005 22.4029C154.967 22.4029 153.136 22.9126 151.515 23.9319C149.893 24.905 148.619 26.2487 147.692 27.9631C146.812 29.6311 146.371 31.5772 146.371 33.8012C146.371 36.0253 146.812 37.9945 147.692 39.7089C148.619 41.4233 149.893 42.767 151.515 43.7401C153.136 44.7131 154.967 45.1996 157.005 45.1996Z" fill="#393E41"/>
<path d="M97.2491 52.7059V14.8966H105.798V22.3334L105.103 21.0128C105.983 18.7424 107.42 17.028 109.412 15.8697C111.451 14.665 113.814 14.0626 116.501 14.0626C119.281 14.0626 121.737 14.665 123.868 15.8697C126.046 17.0744 127.737 18.7656 128.942 20.9433C130.147 23.0747 130.749 25.5536 130.749 28.3801V52.7059H121.644V30.5346C121.644 28.8666 121.32 27.4302 120.671 26.2255C120.023 25.0208 119.119 24.0941 117.961 23.4454C116.849 22.7504 115.528 22.4029 113.999 22.4029C112.516 22.4029 111.196 22.7504 110.037 23.4454C108.879 24.0941 107.976 25.0208 107.327 26.2255C106.678 27.4302 106.354 28.8666 106.354 30.5346V52.7059H97.2491Z" fill="#393E41"/>
<path d="M78.6018 52.7059V0.926676H88.0541V52.7059H78.6018Z" fill="#393E41"/>
<path fill-rule="evenodd" clip-rule="evenodd" d="M31.7445 7.09501H17.7133V18.4407L7.99931 12.4326L0.545485 24.2368L11.4591 30.9872L0.54541 37.7366L7.99934 49.541L17.7125 43.533V54.8779L31.7445 54.8774V43.5333L41.4577 49.5414L48.9116 37.7369L37.998 30.9875L48.9123 24.2368L41.4585 12.4326L31.7445 18.4407V7.09501ZM27.4006 11.4389V26.235L40.0833 18.3907L42.8984 22.8489L29.7397 30.9878L42.8976 39.1251L40.0826 43.5831L27.4006 35.7387V50.5336L22.0564 50.5338V35.7384L9.37442 43.5828L6.55941 39.1248L19.7173 30.9874L6.55934 22.8489L9.37445 18.3907L22.0572 26.235V11.4389H27.4006Z" fill="#393E41"/>
</svg>
