<svg width="311" height="71" viewBox="0 0 311 71" fill="none" xmlns="http://www.w3.org/2000/svg">
<path d="M70.5291 56.0606V0.411743H80.6879V56.0606H70.5291Z" fill="#393E41"/>
<path d="M90.57 56.0606V15.4257H99.7576V23.4183L99.0107 21.999C99.9568 19.5589 101.501 17.7164 103.642 16.4715C105.833 15.1767 108.373 14.5294 111.261 14.5294C114.249 14.5294 116.888 15.1767 119.179 16.4715C121.519 17.7662 123.337 19.5838 124.632 21.9243C125.926 24.215 126.574 26.8792 126.574 29.9169V56.0606H116.788V32.2324C116.788 30.4397 116.44 28.896 115.743 27.6013C115.046 26.3065 114.074 25.3106 112.83 24.6134C111.634 23.8664 110.215 23.493 108.572 23.493C106.978 23.493 105.559 23.8664 104.314 24.6134C103.069 25.3106 102.098 26.3065 101.401 27.6013C100.704 28.896 100.355 30.4397 100.355 32.2324V56.0606H90.57Z" fill="#393E41"/>
<path d="M166.146 70.9999V48.2175L167.715 50.1596C166.32 52.3507 164.378 54.0438 161.888 55.239C159.398 56.3843 156.684 56.957 153.746 56.957C149.812 56.957 146.302 56.0357 143.214 54.1932C140.127 52.3009 137.687 49.7363 135.894 46.4995C134.101 43.2626 133.205 39.6772 133.205 35.7432C133.205 31.7594 134.101 28.1739 135.894 24.9869C137.687 21.7998 140.127 19.2602 143.214 17.3678C146.351 15.4755 149.837 14.5294 153.672 14.5294C156.759 14.5294 159.498 15.1519 161.888 16.3968C164.328 17.5919 166.245 19.2851 167.64 21.4762L166.669 23.493V15.4257H175.931V70.9999H166.146ZM154.792 47.9934C157.033 47.9934 159 47.4705 160.693 46.4248C162.386 45.379 163.706 43.9349 164.652 42.0924C165.648 40.2499 166.146 38.1335 166.146 35.7432C166.146 33.4027 165.648 31.3112 164.652 29.4687C163.706 27.5764 162.386 26.1073 160.693 25.0616C159 24.0158 157.033 23.493 154.792 23.493C152.601 23.493 150.634 24.0407 148.891 25.1363C147.148 26.182 145.779 27.6262 144.783 29.4687C143.837 31.2614 143.363 33.3529 143.363 35.7432C143.363 38.1335 143.837 40.2499 144.783 42.0924C145.779 43.9349 147.148 45.379 148.891 46.4248C150.634 47.4705 152.601 47.9934 154.792 47.9934Z" fill="#393E41"/>
<path d="M199.526 56.957C196.389 56.957 193.65 56.2598 191.309 54.8655C189.019 53.4711 187.251 51.529 186.006 49.0392C184.811 46.5493 184.213 43.6361 184.213 40.2997V15.4257H193.998V39.478C193.998 41.1711 194.322 42.6651 194.969 43.9598C195.667 45.2047 196.638 46.2007 197.883 46.9477C199.177 47.6448 200.621 47.9934 202.215 47.9934C203.809 47.9934 205.228 47.6448 206.473 46.9477C207.718 46.2007 208.689 45.1798 209.386 43.8851C210.083 42.5904 210.432 41.0466 210.432 39.2539V15.4257H220.217V56.0606H210.954V48.0681L211.776 49.4873C210.83 51.9772 209.261 53.8446 207.07 55.0896C204.929 56.3345 202.414 56.957 199.526 56.957Z" fill="#393E41"/>
<path d="M229.313 56.0606V15.4257H239.098V56.0606H229.313ZM229.313 10.8693V0.411743H239.098V10.8693H229.313Z" fill="#393E41"/>
<path d="M248.133 56.0606V15.4257H257.321V24.464L256.574 23.1195C257.52 20.0818 258.989 17.9654 260.981 16.7703C263.022 15.5751 265.462 14.9776 268.301 14.9776H270.691V23.6424H267.181C264.392 23.6424 262.151 24.5138 260.458 26.2567C258.765 27.9499 257.918 30.3401 257.918 33.4276V56.0606H248.133Z" fill="#393E41"/>
<path d="M288.396 56.957C285.558 56.957 283.093 56.4839 281.001 55.5377C278.91 54.5916 277.291 53.2471 276.146 51.5041C275 49.7114 274.428 47.6448 274.428 45.3043C274.428 43.0634 274.926 41.0715 275.922 39.3286C276.918 37.5359 278.461 36.042 280.553 34.8468C282.644 33.6517 285.284 32.8051 288.471 32.3071L301.767 30.1409V37.6106L290.338 39.5527C288.396 39.9013 286.952 40.5238 286.006 41.4201C285.06 42.3165 284.587 43.4867 284.587 44.9309C284.587 46.3252 285.109 47.4456 286.155 48.2922C287.251 49.089 288.595 49.4873 290.189 49.4873C292.23 49.4873 294.023 49.0641 295.567 48.2175C297.16 47.3211 298.38 46.1011 299.227 44.5574C300.123 43.0136 300.572 41.3205 300.572 39.478V29.0205C300.572 27.2776 299.874 25.8334 298.48 24.6881C297.136 23.493 295.343 22.8954 293.102 22.8954C291.01 22.8954 289.143 23.4681 287.5 24.6134C285.906 25.709 284.736 27.178 283.989 29.0205L275.996 25.1363C276.793 22.995 278.038 21.1525 279.731 19.6087C281.474 18.0152 283.516 16.7703 285.856 15.8739C288.197 14.9776 290.737 14.5294 293.475 14.5294C296.812 14.5294 299.75 15.1519 302.29 16.3968C304.829 17.5919 306.796 19.2851 308.191 21.4762C309.635 23.6175 310.357 26.1322 310.357 29.0205V56.0606H301.094V49.1139L303.186 48.9645C302.14 50.7074 300.895 52.1764 299.451 53.3716C298.007 54.5169 296.364 55.4133 294.521 56.0606C292.679 56.6582 290.637 56.957 288.396 56.957Z" fill="#393E41"/>
<path fill-rule="evenodd" clip-rule="evenodd" d="M19.0944 7.04107H34.1743V19.2347L44.6142 12.7775L52.6251 25.464L40.8952 32.7192L52.6244 39.973L44.6134 52.6596L34.1743 46.2026V58.3944L19.0937 58.395V46.2022L8.65455 52.6593L0.643555 39.9726L12.3728 32.7188L0.643635 25.464L8.65452 12.7775L19.0944 19.2347V7.04107ZM23.763 11.7096V27.6115L10.1324 19.181L7.10693 23.9723L21.2483 32.7191L7.10701 41.4646L10.1324 46.2557L23.7622 37.8251V53.7263L29.5058 53.7261V37.8255L43.1356 46.2561L46.161 41.4649L32.0197 32.7194L46.1618 23.9723L43.1363 19.181L29.5058 27.6115V11.7096H23.763Z" fill="#393E41"/>
</svg>
